<svg xmlns="http://www.w3.org/2000/svg" viewBox="0 0 64 64"><rect width="64" height="64" rx="14" fill="#141312"/><g transform="translate(32 32) scale(0.18) translate(-100 -100)" fill="none" stroke="#c9a878" stroke-width="6" stroke-linecap="round" stroke-linejoin="round"><path d="M 100 50 C 100 35 99 22 102 12"/><path d="M 100 50 C 95 36 90 25 86 16"/><path d="M 100 50 C 105 36 110 25 114 16"/><path d="M 100 50 C 65 55 42 82 42 116 C 42 150 68 170 100 170 C 132 170 158 150 158 116 C 158 82 135 55 100 50 Z"/><path d="M 100 50 C 78 88 76 132 82 170"/><path d="M 100 50 L 100 170"/><path d="M 100 50 C 122 88 124 132 118 170"/></g></svg>
